<svg width="18" height="16" xmlns="http://www.w3.org/2000/svg"><path d="M8.522 11.223a4.252 4.252 0 0 1-3.654-5.22l3.654 5.22ZM9 12.25A8.685 8.685 0 0 1 1.5 8a8.612 8.612 0 0 1 2.76-2.864l-.86-1.23A10.112 10.112 0 0 0 .208 7.238a1.5 1.5 0 0 0 0 1.524A10.187 10.187 0 0 0 9 13.75c.414 0 .828-.025 1.239-.074l-1.1-1.572A6.99 6.99 0 0 1 9 12.25Zm8.792-3.488a10.14 10.14 0 0 1-4.486 4.36l-.86-1.23a8.574 8.574 0 0 0 3.846-3.642A8.685 8.685 0 0 0 9 3.75c-.086 0-.172.003-.258.006l-1.1-1.573L9 2.25a10.187 10.187 0 0 1 8.792 5.238 1.5 1.5 0 0 1 0 1.524v-.75ZM0 15.664l2-1.25a.75.75 0 0 0 .232-.357l.768-1.098 1-1.432.453-.648a5.752 5.752 0 0 0 7.08-8.529l2-2.86 1.221-1.747a.75.75 0 0 0-1.232-.86L.232 14.804a.75.75 0 1 0 1.232.86h-.001Zm5.837-7.436a4.25 4.25 0 0 1 5.23-3.307L5.836 8.228Z" fill="#828FA3"/></svg>
