<svg width="153" height="26" xmlns="http://www.w3.org/2000/svg"><g fill="none" fill-rule="evenodd"><path d="M44.56 25v-9.392l1.624.336L44.8 16.2l-1.384-.256V25h-3.08V0h3.08v12.68l1.624-.224-1.624.48 3.64-5.376h3.416L46.968 12.8l3.704 6.08L51.424 25H48.12l-2.576-4.72-1.736 1.76.752-1.776V25h-.752 1.752zm24.218 0l-.504-2.394v.07L68.694 25h-.336l.504-2.324V25h-3.024l-.336-2.352h-4.032L61.134 25H58.11l4.48-17.44h3.528L70.578 25h-1.8zm-3.792-5.04l-1.176-5.712-.192-1.12-.192-1.064-.192-1.036v.028l-.192 1.036-.192 1.064-.192 1.12-1.176 5.684h3.504zM84.07 25l-5.74-10.544-.672-1.4-.532-1.288.112 1.316.084 1.512V25h-2.94V7.56h2.968l5.656 10.404.7 1.4.56 1.26-.084-1.316-.084-1.484V7.56h2.912V25H84.07zM97.862 25v-3.08h2.352V10.64h-2.352V7.56h7.784v3.08h-2.352v11.28h2.352V25h-7.784zm-3.472 0V10.64h-2.352V7.56h3.36l-.672 1.008V25h-3.08l.744-1.008V10.64h.056L97.862 25h-3.472zM117.588 25l-.504-2.394v.07L117.504 25h-.336l.504-2.324V25H114.648l-.336-2.352H110.28L109.944 25h-3.024l4.48-17.44h3.528L119.388 25h-1.8zm-3.792-5.04l-1.176-5.712-.192-1.12-.192-1.064-.192-1.036v.028l-.192 1.036-.192 1.064-.192 1.12-1.176 5.684h3.504zM127.99 25V10.64h-3.472V7.56h9.996v3.08h-3.444V25h-3.08zM140.454 25V7.56h3.08v6.888h.336l3.752-6.888h3.36l-4.088 7.336L151.086 25h-3.444l-3.752-7.728V25h-3.436z" fill="#000112"/><g transform="translate(0 1)" fill="#635FC7"><rect width="6" height="25" rx="2"/><rect opacity=".75" x="9" width="6" height="25" rx="2"/><rect opacity=".5" x="18" width="6" height="25" rx="2"/></g></g></svg>
